<!-- Generated by IcoMoon.io -->
<svg version="1.1" xmlns="http://www.w3.org/2000/svg" width="32" height="32" viewBox="0 0 32 32">
<title>client-four</title>
<path fill="#afb1b8" d="M4.949 13.027h-0.001c-0.903 0-1.635 0.65-1.635 1.453v0.001c0 0.802 0.732 1.453 1.635 1.453h0.001c0.903 0 1.635-0.65 1.635-1.453v-0.001c0-0.802-0.732-1.453-1.635-1.453z"></path>
<path fill="#afb1b8" d="M17.015 12.563c-0.003-1.114-0.502-2.182-1.388-2.97s-2.088-1.232-3.342-1.234v0c-1.254 0.002-2.457 0.446-3.344 1.234s-1.386 1.856-1.389 2.971v0 6.145c0 0 9.462-0.937 9.463-6.144v-0.001z"></path>
<path fill="#afb1b8" d="M0 20.725c0.002 0.775 0.35 1.518 0.967 2.067s1.453 0.857 2.325 0.86v0c0.872-0.002 1.708-0.311 2.325-0.859s0.964-1.291 0.967-2.066v0-4.276c0 0-6.584 0.652-6.584 4.275zM3.292 21.491c-0.171 0-0.337-0.045-0.479-0.129s-0.252-0.204-0.317-0.344c-0.065-0.14-0.082-0.294-0.049-0.443s0.115-0.285 0.236-0.392 0.274-0.18 0.441-0.21c0.167-0.030 0.341-0.014 0.498 0.044s0.292 0.156 0.387 0.282c0.095 0.126 0.145 0.274 0.145 0.426 0 0.101-0.022 0.201-0.065 0.294s-0.107 0.178-0.187 0.25c-0.080 0.071-0.175 0.128-0.28 0.167s-0.217 0.059-0.331 0.059v-0.003z"></path>
<path fill="#afb1b8" d="M9.31 20.119v1.606h-0.331v-1.606h0.331zM9.95 20.805v0.258h-0.73v-0.258h0.73zM10.027 20.119v0.259h-0.807v-0.259h0.807zM11.538 20.885v0.076c0 0.122-0.017 0.232-0.050 0.329s-0.080 0.18-0.14 0.248c-0.060 0.068-0.132 0.119-0.216 0.155s-0.175 0.054-0.277 0.054c-0.101 0-0.193-0.018-0.277-0.054s-0.155-0.088-0.216-0.155c-0.061-0.068-0.108-0.151-0.142-0.248s-0.050-0.207-0.050-0.329v-0.076c0-0.123 0.017-0.232 0.050-0.329s0.080-0.18 0.14-0.248c0.061-0.068 0.133-0.121 0.216-0.157s0.176-0.054 0.277-0.054c0.101 0 0.194 0.018 0.277 0.054s0.156 0.088 0.216 0.157c0.061 0.068 0.108 0.151 0.141 0.248s0.051 0.206 0.051 0.329zM11.204 20.961v-0.078c0-0.085-0.008-0.16-0.023-0.225s-0.038-0.119-0.068-0.163-0.067-0.077-0.11-0.099c-0.043-0.023-0.093-0.034-0.149-0.034s-0.106 0.011-0.149 0.034c-0.043 0.022-0.079 0.055-0.109 0.099s-0.052 0.099-0.067 0.163c-0.015 0.065-0.023 0.14-0.023 0.225v0.078c0 0.085 0.008 0.16 0.023 0.225s0.038 0.119 0.068 0.164c0.030 0.044 0.067 0.078 0.11 0.1s0.093 0.034 0.149 0.034c0.056 0 0.105-0.011 0.149-0.034s0.080-0.056 0.109-0.1c0.029-0.045 0.052-0.1 0.067-0.164s0.023-0.14 0.023-0.225zM12.612 21.305c0-0.029-0.004-0.054-0.013-0.077s-0.024-0.045-0.046-0.064c-0.023-0.020-0.055-0.039-0.096-0.058s-0.095-0.039-0.16-0.060c-0.073-0.024-0.142-0.050-0.207-0.079s-0.122-0.064-0.172-0.103c-0.049-0.040-0.088-0.086-0.117-0.138s-0.042-0.113-0.042-0.182c0-0.067 0.015-0.128 0.044-0.182s0.071-0.102 0.124-0.141c0.053-0.040 0.115-0.070 0.187-0.092s0.153-0.032 0.239-0.032c0.118 0 0.222 0.021 0.31 0.064s0.157 0.101 0.205 0.175c0.049 0.074 0.074 0.159 0.074 0.255h-0.329c0-0.047-0.010-0.088-0.030-0.124s-0.049-0.064-0.088-0.085c-0.039-0.021-0.088-0.031-0.148-0.031-0.057 0-0.105 0.009-0.143 0.026s-0.067 0.040-0.086 0.069c-0.019 0.029-0.029 0.061-0.029 0.097 0 0.027 0.007 0.052 0.020 0.074s0.035 0.043 0.062 0.062c0.027 0.019 0.061 0.037 0.1 0.054s0.086 0.033 0.138 0.050c0.088 0.026 0.164 0.056 0.23 0.089s0.123 0.070 0.168 0.111 0.079 0.088 0.101 0.14c0.023 0.052 0.034 0.111 0.034 0.178 0 0.070-0.014 0.132-0.041 0.188s-0.067 0.102-0.118 0.14c-0.051 0.038-0.113 0.067-0.184 0.087s-0.151 0.030-0.239 0.030c-0.079 0-0.158-0.010-0.235-0.031s-0.147-0.053-0.211-0.096c-0.063-0.043-0.113-0.097-0.15-0.163s-0.056-0.145-0.056-0.235h0.332c0 0.050 0.008 0.092 0.023 0.127s0.037 0.063 0.065 0.084c0.029 0.021 0.063 0.037 0.101 0.046s0.083 0.014 0.13 0.014c0.057 0 0.104-0.008 0.141-0.024s0.065-0.039 0.083-0.067c0.018-0.029 0.028-0.061 0.028-0.097zM13.886 20.119v1.606h-0.33v-1.606h0.33zM14.38 20.119v0.259h-1.31v-0.259h1.31zM15.647 21.467v0.258h-0.855v-0.258h0.855zM14.9 20.119v1.606h-0.331v-1.606h0.331zM15.535 20.773v0.251h-0.743v-0.251h0.743zM15.645 20.119v0.259h-0.854v-0.259h0.854zM15.84 20.119h0.599c0.123 0 0.228 0.018 0.317 0.055s0.157 0.091 0.205 0.163c0.048 0.072 0.072 0.161 0.072 0.266 0 0.086-0.015 0.16-0.044 0.222s-0.070 0.112-0.122 0.153c-0.052 0.040-0.114 0.073-0.184 0.097l-0.105 0.055h-0.521l-0.002-0.258h0.387c0.058 0 0.106-0.010 0.145-0.031s0.067-0.049 0.086-0.086c0.020-0.037 0.030-0.079 0.030-0.128 0-0.051-0.010-0.096-0.029-0.133s-0.048-0.066-0.087-0.086c-0.039-0.020-0.088-0.030-0.147-0.030h-0.268v1.347h-0.331v-1.606zM16.737 21.725l-0.366-0.716 0.35-0.002 0.371 0.703v0.015h-0.354zM18.474 21.153h-0.409v-0.258h0.409c0.063 0 0.115-0.010 0.154-0.031s0.069-0.051 0.087-0.088c0.018-0.038 0.028-0.080 0.028-0.127s-0.009-0.092-0.028-0.133c-0.018-0.041-0.047-0.074-0.087-0.099s-0.091-0.038-0.154-0.038h-0.294v1.347h-0.331v-1.606h0.625c0.126 0 0.233 0.023 0.323 0.068s0.16 0.107 0.207 0.186c0.048 0.079 0.072 0.17 0.072 0.272 0 0.104-0.024 0.193-0.072 0.269s-0.117 0.134-0.207 0.175c-0.090 0.041-0.197 0.062-0.323 0.062zM20.383 21.467v0.258h-0.855v-0.258h0.855zM19.636 20.119v1.606h-0.331v-1.606h0.331zM20.271 20.773v0.251h-0.743v-0.251h0.743zM20.381 20.119v0.259h-0.854v-0.259h0.854zM21.316 20.119v1.606h-0.33v-1.606h0.33zM21.81 20.119v0.259h-1.31v-0.259h1.31zM23.076 21.467v0.258h-0.855v-0.258h0.855zM22.329 20.119v1.606h-0.331v-1.606h0.331zM22.965 20.773v0.251h-0.743v-0.251h0.743zM23.075 20.119v0.259h-0.854v-0.259h0.854zM23.269 20.119h0.599c0.123 0 0.228 0.018 0.317 0.055s0.157 0.091 0.205 0.163c0.048 0.072 0.072 0.161 0.072 0.266 0 0.086-0.015 0.16-0.044 0.222s-0.070 0.112-0.122 0.153c-0.052 0.040-0.114 0.073-0.184 0.097l-0.105 0.055h-0.521l-0.002-0.258h0.387c0.058 0 0.106-0.010 0.145-0.031s0.067-0.049 0.086-0.086c0.020-0.037 0.030-0.079 0.030-0.128 0-0.051-0.010-0.096-0.029-0.133s-0.048-0.066-0.087-0.086c-0.039-0.020-0.088-0.030-0.147-0.030h-0.268v1.347h-0.331v-1.606zM24.167 21.725l-0.366-0.716 0.35-0.002 0.371 0.703v0.015h-0.354zM25.552 21.305c0-0.029-0.004-0.054-0.013-0.077s-0.024-0.045-0.046-0.064c-0.023-0.020-0.055-0.039-0.096-0.058s-0.095-0.039-0.16-0.060c-0.073-0.024-0.142-0.050-0.207-0.079s-0.122-0.064-0.172-0.103c-0.049-0.040-0.088-0.086-0.117-0.138s-0.042-0.113-0.042-0.182c0-0.067 0.015-0.128 0.044-0.182s0.071-0.102 0.124-0.141c0.053-0.040 0.115-0.070 0.187-0.092s0.153-0.032 0.239-0.032c0.118 0 0.222 0.021 0.31 0.064s0.157 0.101 0.205 0.175c0.049 0.074 0.074 0.159 0.074 0.255h-0.329c0-0.047-0.010-0.088-0.030-0.124s-0.049-0.064-0.088-0.085c-0.039-0.021-0.088-0.031-0.148-0.031-0.057 0-0.105 0.009-0.143 0.026s-0.067 0.040-0.086 0.069c-0.019 0.029-0.029 0.061-0.029 0.097 0 0.027 0.007 0.052 0.020 0.074s0.035 0.043 0.062 0.062c0.027 0.019 0.061 0.037 0.1 0.054s0.086 0.033 0.138 0.050c0.087 0.026 0.164 0.056 0.23 0.089s0.123 0.070 0.168 0.111 0.079 0.088 0.101 0.14c0.023 0.052 0.034 0.111 0.034 0.178 0 0.070-0.014 0.132-0.041 0.188s-0.067 0.102-0.118 0.14c-0.051 0.038-0.113 0.067-0.184 0.087s-0.151 0.030-0.239 0.030c-0.079 0-0.158-0.010-0.235-0.031s-0.147-0.053-0.211-0.096c-0.063-0.043-0.113-0.097-0.15-0.163s-0.056-0.145-0.056-0.235h0.332c0 0.050 0.008 0.092 0.023 0.127s0.037 0.063 0.065 0.084c0.029 0.021 0.063 0.037 0.102 0.046s0.083 0.014 0.13 0.014c0.057 0 0.104-0.008 0.141-0.024s0.065-0.039 0.083-0.067c0.018-0.029 0.028-0.061 0.028-0.097z"></path>
</svg>
